<svg width="51" height="51" viewBox="0 0 51 51" fill="none" xmlns="http://www.w3.org/2000/svg">
<path d="M0 10C0 4.47715 4.47715 0 10 0H41C46.5228 0 51 4.47715 51 10V41C51 46.5228 46.5228 51 41 51H10C4.47715 51 0 46.5228 0 41V10Z" fill="black"/>
<path d="M15.3359 31.9766C16.8984 31.9766 18.1484 31.0781 18.6953 29.6328L20.4922 30.2188C19.8281 32.4062 17.7969 33.6953 15.3359 33.6953C11.9375 33.6953 9.55469 31.2344 9.55469 27.6406C9.55469 24.0469 11.9375 21.5859 15.3359 21.5859C17.8359 21.5859 19.8281 22.875 20.4922 25.0625L18.6562 25.6484C18.1094 24.2031 16.8984 23.3047 15.3359 23.3047C13.2656 23.3047 11.8984 24.5938 11.5859 26.6641H16.8984V28.3828H11.5469C11.7812 30.5703 13.1875 31.9766 15.3359 31.9766ZM33.5391 33.5L27.9531 26.1562L25.6484 28.4219V33.5H23.6172V18.6562H25.6484V26.0781L33.0703 18.6562H35.6094L29.3984 24.75L36.0391 33.5H33.5391ZM37.9922 33.5V30.7656H40.7266V33.5H37.9922Z" fill="white"/>
</svg>
